<?xml version="1.0" encoding="utf-8"?>
<!-- Generator: Adobe Illustrator 16.0.0, SVG Export Plug-In . SVG Version: 6.00 Build 0)  -->
<!DOCTYPE svg PUBLIC "-//W3C//DTD SVG 1.1//EN" "http://www.w3.org/Graphics/SVG/1.1/DTD/svg11.dtd">
<svg version="1.1" id="Layer_1" xmlns="http://www.w3.org/2000/svg" xmlns:xlink="http://www.w3.org/1999/xlink" x="0px" y="0px"
	 width="200px" height="200px" viewBox="0 0 200 200" style="enable-background:new 0 0 200 200;" xml:space="preserve">
<style type="text/css">
<![CDATA[
	.st0{opacity:0.95;fill-rule:evenodd;clip-rule:evenodd;fill:url(#SVGID_1_);fill-opacity:0.8;}
	.st1{opacity:0.5;fill-rule:evenodd;clip-rule:evenodd;fill:url(#SVGID_2_);}
	.st2{opacity:0.8;fill-rule:evenodd;clip-rule:evenodd;fill:url(#SVGID_4_);}
	.st3{opacity:0.6;fill-rule:evenodd;clip-rule:evenodd;fill:url(#SVGID_5_);}
	.st4{opacity:0.95;fill-rule:evenodd;clip-rule:evenodd;fill:url(#SVGID_6_);fill-opacity:0.8;}
	.st5{opacity:0.8;fill-rule:evenodd;clip-rule:evenodd;fill:url(#SVGID_3_);fill-opacity:0.8;}
]]>
</style>
<linearGradient id="SVGID_1_" gradientUnits="userSpaceOnUse" x1="78.6084" y1="59.2451" x2="163.8382" y2="144.475">
	<stop  offset="0" style="stop-color:#46B7FF"/>
	<stop  offset="1" style="stop-color:#3136FF"/>
</linearGradient>
<path class="st0" d="M132.261,171.699l-27.706-1.997V119.87c0-2.945-2.428-5.369-5.401-5.408l-8.293-0.117V95.264l6.316-0.088
	c2.974-0.042,5.4-2.463,5.4-5.407V35.276l29.685-2.462c4.946-0.41,8.997,3.052,8.997,7.738v123.31
	C141.258,168.549,137.207,172.055,132.261,171.699L132.261,171.699z"/>
<linearGradient id="SVGID_2_" gradientUnits="userSpaceOnUse" x1="56.4873" y1="16.1016" x2="108.7759" y2="68.3902">
	<stop  offset="0" style="stop-color:#46B7FF"/>
	<stop  offset="0.1436" style="stop-color:#45B1FF"/>
	<stop  offset="0.3356" style="stop-color:#42A0FF"/>
	<stop  offset="0.5552" style="stop-color:#3E84FF"/>
	<stop  offset="0.7931" style="stop-color:#375EFF"/>
	<stop  offset="1" style="stop-color:#3136FF"/>
</linearGradient>
<path class="st1" d="M89.678,85.647l-2.636,0.036v-35.75c0-3.107-2.53-5.442-5.628-5.22l-27.788,2V20.898
	c0-2.319,1.815-4.41,4.068-4.67l31.984-3.697c2.484-0.287,4.511,1.472,4.511,3.93v64.674C94.189,83.593,92.162,85.614,89.678,85.647
	L89.678,85.647z"/>
<linearGradient id="SVGID_3_" gradientUnits="userSpaceOnUse" x1="50.6152" y1="144.0684" x2="102.874" y2="170.6955">
	<stop  offset="0" style="stop-color:#46B7FF"/>
	<stop  offset="1" style="stop-color:#3136FF"/>
</linearGradient>
<path class="st5" d="M89.051,191.318l-35.118-4.061c-2.474-0.287-4.467-2.586-4.467-5.135v-35.802l30.221,1.409
	c3.098,0.145,5.628-2.255,5.628-5.361v-20.012l3.735,0.051c2.727,0.038,4.952,2.259,4.952,4.96V187
	C94.003,189.701,91.778,191.635,89.051,191.318L89.051,191.318z"/>
<linearGradient id="SVGID_4_" gradientUnits="userSpaceOnUse" x1="30.7085" y1="96.4399" x2="77.6655" y2="96.4399">
	<stop  offset="0" style="stop-color:#56CBFF"/>
	<stop  offset="1" style="stop-color:#3136FF;stop-opacity:0.5"/>
</linearGradient>
<path class="st2" d="M35.382,56.072l37.021-2.656c2.896-0.208,5.262,1.97,5.262,4.865v76.189c0,2.896-2.367,5.135-5.262,5.001
	l-37.021-1.723c-2.589-0.122-4.673-2.414-4.673-5.124v-71.31C30.708,58.605,32.792,56.258,35.382,56.072L35.382,56.072z"/>
<linearGradient id="SVGID_5_" gradientUnits="userSpaceOnUse" x1="182.7119" y1="56.1963" x2="182.7119" y2="146.6177">
	<stop  offset="0" style="stop-color:#31A6FF"/>
	<stop  offset="0.101" style="stop-color:#319EFE;stop-opacity:0.9559"/>
	<stop  offset="0.2534" style="stop-color:#308AFA;stop-opacity:0.8893"/>
	<stop  offset="0.4373" style="stop-color:#2F68F5;stop-opacity:0.8089"/>
	<stop  offset="0.5538" style="stop-color:#2E4FF1;stop-opacity:0.7581"/>
	<stop  offset="0.7169" style="stop-color:#2B52E4;stop-opacity:0.4809"/>
	<stop  offset="1" style="stop-color:#2559C4;stop-opacity:0"/>
</linearGradient>
<path class="st3" d="M182.137,56.196h1.15c4.772,0,8.64,3.795,8.64,8.477v73.466c0,4.682-3.867,8.479-8.64,8.479h-1.15
	c-4.771,0-8.64-3.797-8.64-8.479V64.673C173.497,59.992,177.365,56.196,182.137,56.196L182.137,56.196z"/>
<linearGradient id="SVGID_6_" gradientUnits="userSpaceOnUse" x1="182.6025" y1="55.5835" x2="182.6025" y2="74.2329">
	<stop  offset="0.1344" style="stop-color:#46B7FF"/>
	<stop  offset="0.3731" style="stop-color:#46B4FF;stop-opacity:0.807"/>
	<stop  offset="0.5415" style="stop-color:#45ABFF;stop-opacity:0.6707"/>
	<stop  offset="0.6883" style="stop-color:#439BFF;stop-opacity:0.552"/>
	<stop  offset="0.8227" style="stop-color:#4185FF;stop-opacity:0.4433"/>
	<stop  offset="0.9476" style="stop-color:#3E69FF;stop-opacity:0.3424"/>
	<stop  offset="1" style="stop-color:#3C5BFF;stop-opacity:0.3"/>
</linearGradient>
<path class="st4" d="M182.602,55.583c5.15,0,9.325,4.175,9.325,9.325c0,5.149-4.175,9.324-9.325,9.324
	c-5.149,0-9.323-4.175-9.323-9.324C173.278,59.759,177.452,55.583,182.602,55.583L182.602,55.583z"/>
</svg>
